<mxfile host="www.draw.io" modified="2020-06-11T06:18:13.768Z" agent="5.0 (Macintosh; Intel Mac OS X 10_13_6) AppleWebKit/537.36 (KHTML, like Gecko) Chrome/83.0.4103.97 Safari/537.36" etag="Z_56Uf-Yc26It1Z6Awpf" version="13.1.12" type="github">
  <diagram id="KupiuQSQ4fKIFeXX69yj" name="Page-1">
    <mxGraphModel dx="892" dy="498" grid="1" gridSize="10" guides="1" tooltips="1" connect="1" arrows="1" fold="1" page="1" pageScale="1" pageWidth="827" pageHeight="1169" math="0" shadow="0">
      <root>
        <mxCell id="0" />
        <mxCell id="1" parent="0" />
        <mxCell id="JT4Lzt5HakhaJu63T5cR-1" value="提成方案 Commissionplan&lt;br&gt;COMMISSIONPLAN" style="rounded=1;whiteSpace=wrap;html=1;" vertex="1" parent="1">
          <mxGeometry x="260" y="30" width="230" height="60" as="geometry" />
        </mxCell>
        <mxCell id="JT4Lzt5HakhaJu63T5cR-2" value="提成方案适用门店 Commissionstore&lt;br&gt;COMMISSIONSTORE" style="rounded=1;whiteSpace=wrap;html=1;" vertex="1" parent="1">
          <mxGeometry x="30" y="180" width="210" height="60" as="geometry" />
        </mxCell>
        <mxCell id="JT4Lzt5HakhaJu63T5cR-3" value="提成方案明细之阶梯 CommissionStepPlan&lt;br&gt;COMMISSION_STEPPLAN" style="rounded=1;whiteSpace=wrap;html=1;" vertex="1" parent="1">
          <mxGeometry x="510" y="180" width="239" height="60" as="geometry" />
        </mxCell>
        <mxCell id="JT4Lzt5HakhaJu63T5cR-4" value="提成方案明细之菜品 Commissionitmcm&lt;br&gt;COMMISSIONITMCM" style="rounded=1;whiteSpace=wrap;html=1;" vertex="1" parent="1">
          <mxGeometry x="260" y="180" width="230" height="60" as="geometry" />
        </mxCell>
        <mxCell id="JT4Lzt5HakhaJu63T5cR-5" value="1" style="endArrow=open;html=1;endSize=12;startArrow=diamondThin;startSize=14;startFill=1;edgeStyle=orthogonalEdgeStyle;align=left;verticalAlign=bottom;exitX=0.25;exitY=1;exitDx=0;exitDy=0;" edge="1" parent="1" source="JT4Lzt5HakhaJu63T5cR-1" target="JT4Lzt5HakhaJu63T5cR-2">
          <mxGeometry x="-0.5408" y="-25" relative="1" as="geometry">
            <mxPoint x="280" y="140" as="sourcePoint" />
            <mxPoint x="440" y="140" as="targetPoint" />
            <mxPoint as="offset" />
          </mxGeometry>
        </mxCell>
        <mxCell id="JT4Lzt5HakhaJu63T5cR-6" value="1" style="endArrow=open;html=1;endSize=12;startArrow=diamondThin;startSize=14;startFill=1;edgeStyle=orthogonalEdgeStyle;align=left;verticalAlign=bottom;exitX=0.5;exitY=1;exitDx=0;exitDy=0;" edge="1" parent="1" source="JT4Lzt5HakhaJu63T5cR-1" target="JT4Lzt5HakhaJu63T5cR-4">
          <mxGeometry x="-0.3333" y="5" relative="1" as="geometry">
            <mxPoint x="280" y="100" as="sourcePoint" />
            <mxPoint x="440" y="100" as="targetPoint" />
            <mxPoint as="offset" />
          </mxGeometry>
        </mxCell>
        <mxCell id="JT4Lzt5HakhaJu63T5cR-7" value="按菜品" style="edgeLabel;html=1;align=center;verticalAlign=middle;resizable=0;points=[];" vertex="1" connectable="0" parent="JT4Lzt5HakhaJu63T5cR-6">
          <mxGeometry x="0.2" y="-1" relative="1" as="geometry">
            <mxPoint as="offset" />
          </mxGeometry>
        </mxCell>
        <mxCell id="JT4Lzt5HakhaJu63T5cR-8" value="1" style="endArrow=open;html=1;endSize=12;startArrow=diamondThin;startSize=14;startFill=1;edgeStyle=orthogonalEdgeStyle;align=left;verticalAlign=bottom;exitX=0.75;exitY=1;exitDx=0;exitDy=0;" edge="1" parent="1" source="JT4Lzt5HakhaJu63T5cR-1" target="JT4Lzt5HakhaJu63T5cR-3">
          <mxGeometry x="-0.791" relative="1" as="geometry">
            <mxPoint x="280" y="100" as="sourcePoint" />
            <mxPoint x="440" y="100" as="targetPoint" />
            <mxPoint as="offset" />
          </mxGeometry>
        </mxCell>
        <mxCell id="JT4Lzt5HakhaJu63T5cR-9" value="启用阶梯" style="edgeLabel;html=1;align=center;verticalAlign=middle;resizable=0;points=[];" vertex="1" connectable="0" parent="JT4Lzt5HakhaJu63T5cR-8">
          <mxGeometry x="0.0212" y="-1" relative="1" as="geometry">
            <mxPoint as="offset" />
          </mxGeometry>
        </mxCell>
      </root>
    </mxGraphModel>
  </diagram>
</mxfile>
